<svg xmlns="http://www.w3.org/2000/svg" width="17" height="17" viewBox="0 0 17 17" fill="none">
  <path d="M1.88889 17C1.36944 17 0.924769 16.8335 0.554861 16.5006C0.184954 16.1677 0 15.7675 0 15.3V3.4C0 2.9325 0.184954 2.53229 0.554861 2.19938C0.924769 1.86646 1.36944 1.7 1.88889 1.7H2.83333V0H4.72222V1.7H12.2778V0H14.1667V1.7H15.1111C15.6306 1.7 16.0752 1.86646 16.4451 2.19938C16.815 2.53229 17 2.9325 17 3.4V15.3C17 15.7675 16.815 16.1677 16.4451 16.5006C16.0752 16.8335 15.6306 17 15.1111 17H1.88889ZM1.88889 15.3H15.1111V6.8H1.88889V15.3ZM1.88889 5.1H15.1111V3.4H1.88889V5.1ZM8.5 10.2C8.23241 10.2 8.0081 10.1185 7.82708 9.95563C7.64606 9.79271 7.55556 9.59083 7.55556 9.35C7.55556 9.10917 7.64606 8.90729 7.82708 8.74438C8.0081 8.58146 8.23241 8.5 8.5 8.5C8.76759 8.5 8.9919 8.58146 9.17292 8.74438C9.35394 8.90729 9.44444 9.10917 9.44444 9.35C9.44444 9.59083 9.35394 9.79271 9.17292 9.95563C8.9919 10.1185 8.76759 10.2 8.5 10.2ZM4.72222 10.2C4.45463 10.2 4.23032 10.1185 4.04931 9.95563C3.86829 9.79271 3.77778 9.59083 3.77778 9.35C3.77778 9.10917 3.86829 8.90729 4.04931 8.74438C4.23032 8.58146 4.45463 8.5 4.72222 8.5C4.98981 8.5 5.21412 8.58146 5.39514 8.74438C5.57616 8.90729 5.66667 9.10917 5.66667 9.35C5.66667 9.59083 5.57616 9.79271 5.39514 9.95563C5.21412 10.1185 4.98981 10.2 4.72222 10.2ZM12.2778 10.2C12.0102 10.2 11.7859 10.1185 11.6049 9.95563C11.4238 9.79271 11.3333 9.59083 11.3333 9.35C11.3333 9.10917 11.4238 8.90729 11.6049 8.74438C11.7859 8.58146 12.0102 8.5 12.2778 8.5C12.5454 8.5 12.7697 8.58146 12.9507 8.74438C13.1317 8.90729 13.2222 9.10917 13.2222 9.35C13.2222 9.59083 13.1317 9.79271 12.9507 9.95563C12.7697 10.1185 12.5454 10.2 12.2778 10.2ZM8.5 13.6C8.23241 13.6 8.0081 13.5185 7.82708 13.3556C7.64606 13.1927 7.55556 12.9908 7.55556 12.75C7.55556 12.5092 7.64606 12.3073 7.82708 12.1444C8.0081 11.9815 8.23241 11.9 8.5 11.9C8.76759 11.9 8.9919 11.9815 9.17292 12.1444C9.35394 12.3073 9.44444 12.5092 9.44444 12.75C9.44444 12.9908 9.35394 13.1927 9.17292 13.3556C8.9919 13.5185 8.76759 13.6 8.5 13.6ZM4.72222 13.6C4.45463 13.6 4.23032 13.5185 4.04931 13.3556C3.86829 13.1927 3.77778 12.9908 3.77778 12.75C3.77778 12.5092 3.86829 12.3073 4.04931 12.1444C4.23032 11.9815 4.45463 11.9 4.72222 11.9C4.98981 11.9 5.21412 11.9815 5.39514 12.1444C5.57616 12.3073 5.66667 12.5092 5.66667 12.75C5.66667 12.9908 5.57616 13.1927 5.39514 13.3556C5.21412 13.5185 4.98981 13.6 4.72222 13.6ZM12.2778 13.6C12.0102 13.6 11.7859 13.5185 11.6049 13.3556C11.4238 13.1927 11.3333 12.9908 11.3333 12.75C11.3333 12.5092 11.4238 12.3073 11.6049 12.1444C11.7859 11.9815 12.0102 11.9 12.2778 11.9C12.5454 11.9 12.7697 11.9815 12.9507 12.1444C13.1317 12.3073 13.2222 12.5092 13.2222 12.75C13.2222 12.9908 13.1317 13.1927 12.9507 13.3556C12.7697 13.5185 12.5454 13.6 12.2778 13.6Z" fill="#EFEFEF"/>
</svg>