<svg xmlns="http://www.w3.org/2000/svg" width="17" height="12" viewBox="0 0 17 12" fill="none">
  <path d="M17 6L12.8917 11.2714C12.7185 11.5 12.4942 11.6786 12.2188 11.8071C11.9433 11.9357 11.6481 12 11.3333 12H1.88889C1.36944 12 0.924769 11.8321 0.554861 11.4964C0.184954 11.1607 0 10.7571 0 10.2857V1.71429C0 1.24286 0.184954 0.839286 0.554861 0.503571C0.924769 0.167857 1.36944 0 1.88889 0H11.3333C11.6481 0 11.9433 0.0642857 12.2188 0.192857C12.4942 0.321429 12.7185 0.5 12.8917 0.728571L17 6ZM14.6861 6L11.3333 1.71429H1.88889V10.2857H11.3333L14.6861 6ZM1.88889 6V10.2857V1.71429V6Z" fill="#EFEFEF"/>
</svg>