<svg xmlns="http://www.w3.org/2000/svg" width="17" height="17" viewBox="0 0 17 17" fill="none">
  <path d="M10.4255 16.5106C10.0993 16.8369 9.69503 17 9.21277 17C8.7305 17 8.32624 16.8369 8 16.5106L0.510638 9.02128C0.35461 8.86525 0.230496 8.68085 0.138298 8.46809C0.0460993 8.25532 0 8.02837 0 7.78723V1.70213C0 1.23404 0.166667 0.833333 0.5 0.5C0.833333 0.166667 1.23404 0 1.70213 0H7.78723C8.02837 0 8.25532 0.0460993 8.46809 0.138298C8.68085 0.230496 8.86525 0.35461 9.02128 0.510638L16.5106 8.02128C16.8369 8.34752 17 8.74823 17 9.2234C17 9.69858 16.8369 10.0993 16.5106 10.4255L10.4255 16.5106ZM9.21277 15.3191L15.2979 9.23404L7.78723 1.70213H1.70213V7.78723L9.21277 15.3191ZM3.82979 5.10638C4.1844 5.10638 4.48582 4.98227 4.73404 4.73404C4.98227 4.48582 5.10638 4.1844 5.10638 3.82979C5.10638 3.47518 4.98227 3.17376 4.73404 2.92553C4.48582 2.6773 4.1844 2.55319 3.82979 2.55319C3.47518 2.55319 3.17376 2.6773 2.92553 2.92553C2.6773 3.17376 2.55319 3.47518 2.55319 3.82979C2.55319 4.1844 2.6773 4.48582 2.92553 4.73404C3.17376 4.98227 3.47518 5.10638 3.82979 5.10638Z" fill="#EFEFEF"/>
</svg>